<mxfile host="www.draw.io" modified="2020-01-18T23:34:05.061Z" agent="Mozilla/5.0 (Macintosh; Intel Mac OS X 10_13_6) AppleWebKit/537.36 (KHTML, like Gecko) Chrome/79.0.3945.117 Safari/537.36" etag="TrvtAPxUJIGQAA_IabwY" version="12.5.5" type="github">
  <diagram id="QGhUyTIW-ln7sHWoSe3L" name="Page-1">
    <mxGraphModel dx="315" dy="185" grid="1" gridSize="10" guides="1" tooltips="1" connect="0" arrows="1" fold="1" page="1" pageScale="1" pageWidth="850" pageHeight="1100" math="0" shadow="0">
      <root>
        <mxCell id="0"/>
        <mxCell id="1" parent="0"/>
        <mxCell id="ib5cPDt98PrHHatiAGnp-25" value="" style="rounded=0;whiteSpace=wrap;html=1;strokeColor=#000000;fillColor=#FFFFFF;fontSize=15;" parent="1" vertex="1">
          <mxGeometry x="210" y="20" width="570" height="650" as="geometry"/>
        </mxCell>
        <mxCell id="ib5cPDt98PrHHatiAGnp-1" value="" style="rounded=0;whiteSpace=wrap;html=1;" parent="1" vertex="1">
          <mxGeometry x="290.33" y="90" width="410" height="580" as="geometry"/>
        </mxCell>
        <mxCell id="ib5cPDt98PrHHatiAGnp-2" value="" style="rounded=0;whiteSpace=wrap;html=1;fillColor=#efefef;" parent="1" vertex="1">
          <mxGeometry x="290.33" y="80" width="410" height="60" as="geometry"/>
        </mxCell>
        <mxCell id="ib5cPDt98PrHHatiAGnp-4" value="" style="endArrow=none;html=1;endSize=6;fontSize=15;strokeWidth=4;" parent="1" edge="1">
          <mxGeometry width="50" height="50" relative="1" as="geometry">
            <mxPoint x="310.33000000000004" y="97" as="sourcePoint"/>
            <mxPoint x="360.33000000000004" y="97" as="targetPoint"/>
          </mxGeometry>
        </mxCell>
        <mxCell id="ib5cPDt98PrHHatiAGnp-5" value="" style="endArrow=none;html=1;strokeWidth=4;" parent="1" edge="1">
          <mxGeometry width="50" height="50" relative="1" as="geometry">
            <mxPoint x="310.33000000000004" y="110.58" as="sourcePoint"/>
            <mxPoint x="360.33000000000004" y="110.58" as="targetPoint"/>
          </mxGeometry>
        </mxCell>
        <mxCell id="ib5cPDt98PrHHatiAGnp-6" value="" style="endArrow=none;html=1;strokeWidth=4;" parent="1" edge="1">
          <mxGeometry width="50" height="50" relative="1" as="geometry">
            <mxPoint x="310.33000000000004" y="125" as="sourcePoint"/>
            <mxPoint x="360.33000000000004" y="125" as="targetPoint"/>
          </mxGeometry>
        </mxCell>
        <mxCell id="ib5cPDt98PrHHatiAGnp-7" style="edgeStyle=orthogonalEdgeStyle;rounded=0;orthogonalLoop=1;jettySize=auto;html=1;exitX=0.5;exitY=1;exitDx=0;exitDy=0;endSize=6;strokeWidth=4;fontSize=15;" parent="1" source="ib5cPDt98PrHHatiAGnp-1" target="ib5cPDt98PrHHatiAGnp-1" edge="1">
          <mxGeometry relative="1" as="geometry"/>
        </mxCell>
        <mxCell id="ib5cPDt98PrHHatiAGnp-12" value="" style="rounded=0;whiteSpace=wrap;html=1;fontSize=15;fillColor=#eee;" parent="1" vertex="1">
          <mxGeometry x="590.5000000000001" y="430" width="160" height="200" as="geometry"/>
        </mxCell>
        <mxCell id="ib5cPDt98PrHHatiAGnp-29" value="" style="rounded=0;whiteSpace=wrap;html=1;strokeColor=#000000;fillColor=#FFFFFF;fontSize=15;" parent="1" vertex="1">
          <mxGeometry x="510.33" y="310" width="569.67" height="650" as="geometry"/>
        </mxCell>
        <mxCell id="ib5cPDt98PrHHatiAGnp-28" value="" style="rounded=0;whiteSpace=wrap;html=1;" parent="1" vertex="1">
          <mxGeometry x="590.33" y="370" width="410" height="590" as="geometry"/>
        </mxCell>
        <mxCell id="ib5cPDt98PrHHatiAGnp-8" value="" style="rounded=0;whiteSpace=wrap;html=1;fillColor=#efefef;" parent="1" vertex="1">
          <mxGeometry x="590.5" y="370" width="410" height="60" as="geometry"/>
        </mxCell>
        <mxCell id="ib5cPDt98PrHHatiAGnp-9" value="" style="endArrow=none;html=1;endSize=6;fontSize=15;strokeWidth=4;" parent="1" edge="1">
          <mxGeometry width="50" height="50" relative="1" as="geometry">
            <mxPoint x="610.5000000000001" y="387" as="sourcePoint"/>
            <mxPoint x="660.5000000000001" y="387" as="targetPoint"/>
          </mxGeometry>
        </mxCell>
        <mxCell id="ib5cPDt98PrHHatiAGnp-10" value="" style="endArrow=none;html=1;strokeWidth=4;" parent="1" edge="1">
          <mxGeometry width="50" height="50" relative="1" as="geometry">
            <mxPoint x="610.5000000000001" y="400.58000000000004" as="sourcePoint"/>
            <mxPoint x="660.5000000000001" y="400.58000000000004" as="targetPoint"/>
          </mxGeometry>
        </mxCell>
        <mxCell id="ib5cPDt98PrHHatiAGnp-11" value="" style="endArrow=none;html=1;strokeWidth=4;" parent="1" edge="1">
          <mxGeometry width="50" height="50" relative="1" as="geometry">
            <mxPoint x="610.5000000000001" y="415" as="sourcePoint"/>
            <mxPoint x="660.5000000000001" y="415" as="targetPoint"/>
          </mxGeometry>
        </mxCell>
        <mxCell id="ib5cPDt98PrHHatiAGnp-14" value="&lt;font style=&quot;font-size: 25px&quot;&gt;Link 1&lt;/font&gt;" style="text;html=1;strokeColor=none;fillColor=none;align=center;verticalAlign=middle;whiteSpace=wrap;rounded=0;fontSize=15;" parent="1" vertex="1">
          <mxGeometry x="600.5000000000001" y="460" width="90" height="20" as="geometry"/>
        </mxCell>
        <mxCell id="ib5cPDt98PrHHatiAGnp-18" value="&lt;font style=&quot;font-size: 25px&quot;&gt;Link 2&lt;/font&gt;" style="text;html=1;strokeColor=none;fillColor=none;align=center;verticalAlign=middle;whiteSpace=wrap;rounded=0;fontSize=15;" parent="1" vertex="1">
          <mxGeometry x="600.5000000000001" y="500" width="90" height="20" as="geometry"/>
        </mxCell>
        <mxCell id="ib5cPDt98PrHHatiAGnp-19" value="&lt;font style=&quot;font-size: 25px&quot;&gt;Link 3&lt;/font&gt;" style="text;html=1;strokeColor=none;fillColor=none;align=center;verticalAlign=middle;whiteSpace=wrap;rounded=0;fontSize=15;" parent="1" vertex="1">
          <mxGeometry x="600.5000000000001" y="540" width="90" height="20" as="geometry"/>
        </mxCell>
        <mxCell id="ib5cPDt98PrHHatiAGnp-30" value="" style="verticalLabelPosition=bottom;verticalAlign=top;html=1;shape=mxgraph.basic.rect;fillColor2=none;strokeWidth=1;size=20;indent=5;fillColor=none;gradientColor=none;fontSize=15;" parent="1" vertex="1">
          <mxGeometry x="590.5" y="430" width="140" height="190" as="geometry"/>
        </mxCell>
        <mxCell id="ib5cPDt98PrHHatiAGnp-31" value="" style="html=1;shadow=0;dashed=0;align=center;verticalAlign=middle;shape=mxgraph.arrows2.jumpInArrow;dy=15;dx=38;arrowHead=55;strokeColor=#000000;strokeWidth=11;fillColor=#ffffff;gradientColor=none;fontSize=15;direction=south;" parent="1" vertex="1">
          <mxGeometry x="370.33" y="110" width="289.67" height="220" as="geometry"/>
        </mxCell>
        <mxCell id="-b9HnFjxUjC7qoNVkgfR-1" value="" style="rounded=0;whiteSpace=wrap;html=1;" vertex="1" parent="1">
          <mxGeometry x="210" y="1010" width="1300" height="530" as="geometry"/>
        </mxCell>
        <mxCell id="-b9HnFjxUjC7qoNVkgfR-3" value="" style="rounded=0;whiteSpace=wrap;html=1;" vertex="1" parent="1">
          <mxGeometry x="270" y="1070" width="1180" height="470" as="geometry"/>
        </mxCell>
        <mxCell id="-b9HnFjxUjC7qoNVkgfR-2" value="" style="rounded=0;whiteSpace=wrap;html=1;fillColor=#efefef;" vertex="1" parent="1">
          <mxGeometry x="270" y="1070" width="1180" height="60" as="geometry"/>
        </mxCell>
        <mxCell id="-b9HnFjxUjC7qoNVkgfR-4" value="&lt;font style=&quot;font-size: 25px&quot;&gt;Link 1&lt;/font&gt;" style="text;html=1;strokeColor=none;fillColor=none;align=center;verticalAlign=middle;whiteSpace=wrap;rounded=0;fontSize=15;" vertex="1" parent="1">
          <mxGeometry x="310.0000000000001" y="1091" width="90" height="20" as="geometry"/>
        </mxCell>
        <mxCell id="-b9HnFjxUjC7qoNVkgfR-5" value="&lt;font style=&quot;font-size: 25px&quot;&gt;Link 2&lt;/font&gt;" style="text;html=1;strokeColor=none;fillColor=none;align=center;verticalAlign=middle;whiteSpace=wrap;rounded=0;fontSize=15;" vertex="1" parent="1">
          <mxGeometry x="430.0000000000001" y="1091" width="90" height="20" as="geometry"/>
        </mxCell>
        <mxCell id="-b9HnFjxUjC7qoNVkgfR-6" value="&lt;font style=&quot;font-size: 25px&quot;&gt;Link 3&lt;/font&gt;" style="text;html=1;strokeColor=none;fillColor=none;align=center;verticalAlign=middle;whiteSpace=wrap;rounded=0;fontSize=15;" vertex="1" parent="1">
          <mxGeometry x="550.0000000000001" y="1091" width="90" height="20" as="geometry"/>
        </mxCell>
      </root>
    </mxGraphModel>
  </diagram>
</mxfile>
